# Blender 5.0.1
# www.blender.org
mtllib antena_pez.mtl
g pasted__polySurface3.001_Malla
v 0.165401 0.948990 -0.267089
v 0.138139 0.995273 -0.245917
v 0.120530 1.006796 -0.274634
v 0.127434 1.004928 -0.215274
v 0.107400 1.049608 -0.163295
v 0.107870 0.952419 -0.210269
v 0.053833 0.974326 -0.270303
v 0.127256 0.965411 -0.303075
v 0.100111 0.988987 -0.288822
v 0.116532 0.985407 -0.309734
v 0.108686 0.967715 -0.322507
v 0.095972 0.973218 -0.309796
v 0.117162 0.960336 -0.316432
v 0.091524 0.973274 -0.232276
v 0.100864 1.008926 -0.225523
v 0.102004 0.988702 -0.253840
v 0.100424 0.946492 -0.219480
v 0.114616 0.975782 -0.213331
v 0.120903 1.035202 -0.183751
v 0.109131 1.031276 -0.224996
v 0.103222 1.035337 -0.189428
v 0.103423 1.042093 -0.079066
v 0.121210 1.041465 -0.074184
v 0.103278 1.050479 -0.073129
v 0.074061 0.984451 -0.257094
v 0.066363 0.976285 -0.243472
v 0.070167 0.997274 -0.244573
v 0.062848 0.982043 -0.272386
v 0.054753 0.971991 -0.256173
v 0.053025 0.986668 -0.263497
v 0.096019 0.976098 0.030628
v 0.114113 0.975327 0.035589
v 0.095258 0.986970 0.035716
v 0.108071 0.891647 0.094935
v 0.128882 0.890493 0.099822
v 0.107147 0.910274 0.117838
v 0.102903 0.808497 0.123099
v 0.141732 0.807381 0.128204
v 0.100869 0.833076 0.159665
v 0.050667 0.542237 0.121544
v 0.180888 0.529808 0.147875
v 0.058075 0.527779 0.254375
v 0.077351 0.695879 0.139853
v 0.134895 0.693750 0.148850
v 0.074231 0.721366 0.198757
v 0.158446 0.965965 -0.256743
v 0.146547 0.947933 -0.255546
v 0.159743 0.940703 -0.286413
v 0.141299 0.948006 -0.298872
v 0.145761 0.941246 -0.282107
v 0.154183 0.944442 -0.291553
v 0.140276 0.940937 -0.302705
v 0.146152 0.950415 -0.297353
v 0.133286 0.951143 -0.246327
v 0.146216 0.979489 -0.250726
v 0.142264 0.945598 -0.267223
v 0.156620 0.958714 -0.276925
v 0.166458 0.944625 -0.276012
v 0.128320 0.972225 -0.307682
v 0.121764 0.964487 -0.311470
v 0.116585 0.962375 -0.321540
v 0.112165 0.976012 -0.319138
v 0.117065 1.031636 -0.212598
v 0.107465 1.042196 -0.196381
v 0.114906 1.045878 -0.166506
v 0.052000 0.979041 -0.256809
v 0.051243 0.978311 -0.269884
v 0.052760 0.969745 -0.264829
v 0.096225 0.982830 -0.302160
v 0.099009 0.973030 -0.316050
v 0.103961 0.994449 -0.293992
v 0.114644 0.945831 -0.215815
v 0.125008 0.962210 -0.223490
v 0.108674 0.964718 -0.207467
v 0.057892 0.976230 -0.275175
v 0.058732 0.987406 -0.270296
v 0.159938 0.941813 -0.288234
v 0.149274 0.937881 -0.295037
v 0.146601 0.938174 -0.299516
v 0.107897 0.960072 -0.322138
v 0.104331 1.029785 -0.221232
v 0.103188 1.045996 -0.169687
v 0.101160 0.946173 -0.209654
v 0.104061 0.968712 -0.211734
v 0.154686 0.940128 -0.282602
v 0.142399 0.938246 -0.293412
v 0.151573 0.960977 -0.248545
v 0.160053 0.946676 -0.263106
v 0.166986 0.955433 -0.263185
v 0.106438 0.988566 -0.266504
v 0.103376 1.004041 -0.244338
v 0.105673 1.016064 -0.220459
v 0.113154 1.018467 -0.256991
v 0.119984 0.996346 -0.292000
v 0.122131 1.015980 -0.210497
v 0.111782 1.028468 -0.181691
v 0.096274 0.993678 -0.222149
v 0.101781 0.963408 -0.229972
v 0.122855 0.992478 -0.215764
v 0.130675 1.001176 -0.263827
v 0.134356 1.000184 -0.227004
v 0.121396 1.043978 -0.127794
v 0.114124 1.040039 -0.077324
v 0.104527 1.044369 -0.132401
v 0.106231 1.054107 -0.119512
v 0.114009 1.046748 -0.072575
v 0.099778 1.047251 -0.076481
v 0.088492 0.986701 -0.252019
v 0.073265 0.993778 -0.252305
v 0.086549 1.002713 -0.234204
v 0.078483 0.976731 -0.237268
v 0.067106 0.987245 -0.241408
v 0.066876 0.983841 -0.265121
v 0.059163 0.992458 -0.254698
v 0.058870 0.974438 -0.249414
v 0.116715 1.005502 -0.002311
v 0.107028 0.973461 0.032587
v 0.098621 1.006210 -0.007285
v 0.097860 1.014992 -0.004280
v 0.106419 0.982158 0.036658
v 0.091944 0.982775 0.032688
v 0.119608 0.934624 0.071173
v 0.120742 0.887229 0.093286
v 0.101515 0.935587 0.066249
v 0.100754 0.950184 0.079427
v 0.120003 0.902131 0.111609
v 0.103354 0.903054 0.107699
v 0.137615 0.850034 0.116916
v 0.126607 0.802911 0.118849
v 0.108653 0.851251 0.112042
v 0.107239 0.872879 0.141933
v 0.124980 0.822575 0.148102
v 0.093917 0.823467 0.144018
v 0.112501 0.689504 0.133471
v 0.145947 0.614463 0.154695
v 0.123307 0.550481 0.121039
v 0.069556 0.621368 0.137951
v 0.110006 0.709894 0.180594
v 0.065909 0.629214 0.217820
v 0.130566 0.537298 0.206588
v 0.063970 0.711597 0.173396
v 0.038742 0.545631 0.200596
v 0.137158 0.756671 0.139435
v 0.090468 0.757481 0.133636
v 0.087875 0.785946 0.178989
v 0.121113 0.967733 -0.317933
v 0.112611 1.041069 -0.194438
v 0.050435 0.974602 -0.263728
v 0.100681 0.982408 -0.310484
v 0.116027 0.957774 -0.214434
v 0.055567 0.981086 -0.274074
v 0.151640 0.938137 -0.295868
v 0.101050 0.964896 -0.318380
v 0.113517 0.957910 -0.322007
v 0.104267 1.041109 -0.196699
v 0.102543 0.958116 -0.208273
v 0.148278 0.938195 -0.290984
v 0.161383 0.954074 -0.257705
v 0.106747 1.010571 -0.258884
v 0.108151 0.998363 -0.209909
v 0.124306 1.018130 -0.233390
v 0.114307 1.042187 -0.132215
v 0.115671 1.049977 -0.121904
v 0.102176 1.050290 -0.125589
v 0.089328 0.998302 -0.244280
v 0.081320 0.990327 -0.232479
v 0.063849 0.990891 -0.262009
v 0.057444 0.983369 -0.249443
v 0.109629 1.004029 -0.004902
v 0.109021 1.011055 -0.002498
v 0.094546 1.011621 -0.006477
v 0.112523 0.932089 0.066568
v 0.111914 0.943768 0.077110
v 0.097439 0.944538 0.073171
v 0.126313 0.846195 0.108988
v 0.125182 0.863497 0.132901
v 0.102012 0.864471 0.129001
v 0.116120 0.615656 0.132023
v 0.113203 0.621933 0.195919
v 0.052089 0.627457 0.182524
v 0.119000 0.751302 0.128045
v 0.116926 0.774074 0.164327
v 0.079575 0.774722 0.159688
v 0.144441 0.940583 -0.302003
v 0.138003 0.973723 -0.232292
v 0.139427 0.974090 -0.287287
v 0.165779 0.949462 -0.275350
v 0.158215 0.942491 -0.272357
vn 0.3712 0.6790 -0.6333
vn 0.6552 0.2242 -0.7214
vn 0.1287 0.5712 -0.8107
vn 0.6732 0.0759 -0.7356
vn 0.9240 -0.1546 -0.3498
vn 0.9220 -0.2000 -0.3315
vn 0.6130 0.0683 -0.7871
vn -0.1254 0.2672 -0.9554
vn 0.9778 -0.2086 0.0217
vn 0.5275 0.8183 -0.2285
vn 0.6351 0.7623 -0.1248
vn 0.0279 0.9189 -0.3936
vn 0.6703 0.7240 -0.1627
vn 0.1233 0.9121 -0.3909
vn 0.0353 0.9915 -0.1256
vn -0.7633 0.6444 -0.0469
vn -0.9656 0.0058 -0.2601
vn -0.9095 0.2239 0.3502
vn -0.7805 -0.3285 -0.5318
vn -0.9430 -0.0659 -0.3263
vn -0.5605 0.5426 -0.6257
vn -0.7561 0.5601 -0.3386
vn -0.3823 0.5775 -0.7214
vn -0.6383 0.7506 -0.1710
vn -0.4150 0.8534 -0.3155
vn 0.3969 -0.1911 0.8977
vn 0.5979 -0.0840 0.7972
vn 0.3470 0.0980 0.9327
vn 0.5065 -0.0335 0.8616
vn 0.6620 -0.0416 0.7484
vn -0.4677 0.4041 -0.7861
vn 0.4214 0.5910 -0.6878
vn -0.1399 0.7741 -0.6175
vn -0.5945 0.0330 -0.8034
vn 0.6910 0.2785 -0.6670
vn 0.6230 -0.0553 -0.7803
vn 0.8925 0.3215 -0.3163
vn 0.4892 -0.8722 -0.0001
vn 0.4936 -0.4005 -0.7720
vn -0.3836 0.0885 -0.9192
vn -0.0924 0.1852 -0.9783
vn -0.9818 0.1606 -0.1018
vn -0.9725 -0.1464 0.1810
vn -0.7032 0.7036 -0.1020
vn -0.7161 0.6409 -0.2764
vn -0.8831 0.2973 0.3631
vn 0.2471 -0.2568 0.9343
vn 0.2631 0.0276 0.9644
vn 0.0234 -0.9733 0.2283
vn 0.1978 -0.9704 0.1387
vn -0.1097 -0.9372 0.3310
vn 0.0733 -0.9683 0.2387
vn 0.6288 0.6912 0.3563
vn 0.5528 -0.3273 0.7663
vn 0.8637 0.5014 -0.0521
vn 0.2816 -0.7253 0.6281
vn 0.5793 -0.1903 0.7926
vn 0.3597 -0.7229 0.5899
vn 0.7353 -0.5865 0.3398
vn 0.4294 0.7683 -0.4746
vn -0.9808 0.1727 -0.0910
vn -0.6721 0.7131 0.1996
vn -0.6531 0.4475 -0.6109
vn -0.8337 0.4639 -0.2995
vn -0.9903 -0.0513 0.1294
vn -0.7450 0.5568 -0.3674
vn -0.7638 0.6117 0.2058
vn 0.0860 0.7735 -0.6279
vn -0.0188 0.9627 -0.2698
vn 0.7537 0.0846 0.6517
vn -0.4798 -0.2507 0.8408
vn 0.5599 -0.1385 0.8169
vn -0.1520 -0.9137 0.3768
vn 0.8852 -0.0304 0.4641
vn -0.9047 -0.0274 0.4252
vn -0.6941 0.0570 0.7176
vn -0.4342 -0.2404 0.8681
vn -0.9726 0.2279 0.0466
vn 0.8874 0.4592 0.0415
vn 0.7444 0.6571 -0.1190
vn 0.9133 0.2671 0.3075
vn 0.7578 0.6055 -0.2431
vn -0.5819 -0.8102 0.0698
vn 0.0025 -0.9977 0.0674
vn 0.9631 -0.2606 -0.0674
vn 0.0439 -0.9569 -0.2870
vn -0.4592 -0.8469 -0.2679
vn 0.5682 0.8229 -0.0035
vn -0.1866 0.9679 0.1681
vn 0.4247 0.8465 0.3211
vn 0.9971 -0.0115 0.0750
vn -0.9833 0.1735 -0.0550
vn -0.9949 0.0705 -0.0728
vn -0.2142 0.9739 0.0755
vn -0.5313 0.8047 0.2650
vn -0.1209 0.7650 -0.6326
vn 0.0912 0.5508 -0.8296
vn 0.1534 0.7493 -0.6442
vn -0.4775 0.8427 0.2489
vn -0.5483 0.0368 0.8355
vn -0.4503 -0.1079 0.8863
vn -0.6006 0.1616 0.7831
vn -0.5606 -0.0237 0.8277
vn -0.5917 0.7902 0.1595
vn 0.4883 0.4935 -0.7198
vn 0.1991 0.8482 -0.4908
vn 0.5986 0.5722 -0.5606
vn -0.7527 0.2299 0.6170
vn -0.7206 -0.0858 0.6880
vn -0.7815 -0.2297 0.5801
vn -0.3523 -0.7956 -0.4929
vn 0.1227 -0.8199 -0.5592
vn 0.9946 0.0133 -0.1028
vn 0.1444 -0.6980 -0.7014
vn -0.5042 -0.6504 -0.5681
vn 0.3565 0.7964 0.4885
vn -0.0919 0.8680 0.4879
vn -0.1826 0.7598 0.6240
vn 0.4384 0.6990 0.5650
vn 0.9969 -0.0427 0.0657
vn -0.9968 -0.0215 -0.0774
vn -0.9994 -0.0343 0.0092
vn -0.6912 -0.4986 -0.5231
vn 0.2040 -0.5143 -0.8330
vn 0.9297 0.1786 -0.3221
vn 0.1878 -0.3964 -0.8987
vn -0.7591 -0.3381 -0.5562
vn 0.6683 0.5624 0.4869
vn -0.1813 0.6845 0.7061
vn -0.1118 0.6068 0.7869
vn 0.7591 0.4325 0.4866
vn 0.9953 -0.0519 -0.0820
vn -0.9957 -0.0745 0.0557
vn -0.9993 -0.0340 0.0146
vn -0.7036 -0.1647 -0.6913
vn 0.2011 -0.1941 -0.9601
vn 0.9941 -0.0046 0.1084
vn 0.1407 -0.2052 -0.9685
vn -0.6384 -0.0424 -0.7686
vn 0.7232 0.3128 0.6157
vn 0.9867 -0.1300 -0.0976
vn -0.0935 0.4813 0.8715
vn -0.0828 0.4108 0.9080
vn 0.6747 0.1905 0.7131
vn -0.9987 0.0481 -0.0191
vn -0.9688 0.1906 -0.1582
vn 0.1720 0.0133 -0.9850
vn -0.6615 0.1599 -0.7327
vn -0.6624 0.0688 -0.7460
vn 0.9953 0.0004 0.0972
vn 0.2656 0.1482 -0.9526
vn 0.8900 0.4488 -0.0801
vn 0.2794 0.2762 -0.9196
vn -0.6177 0.4104 -0.6709
vn 0.6070 0.2011 0.7688
vn 0.6407 0.1392 0.7551
vn -0.1420 0.2942 0.9451
vn 0.6428 0.2669 0.7180
vn 0.8385 0.5431 -0.0452
vn -0.9854 0.1585 -0.0617
vn -0.3569 0.0712 0.9314
vn -0.9916 0.1253 -0.0335
vn -0.9581 0.2382 0.1592
vn -0.2348 0.5084 0.8285
vn 0.1320 -0.1354 -0.9820
vn -0.6431 0.0304 -0.7652
vn 0.9908 -0.0340 0.1307
vn 0.6524 0.1244 0.7476
vn -0.1043 0.3479 0.9317
vn -0.9764 0.1865 -0.1085
vn 0.3056 0.4482 -0.8400
vn 0.4380 0.5414 -0.7176
vn 0.2466 0.5723 -0.7821
vn 0.6740 0.1939 -0.7129
vn 0.7842 -0.0140 0.6204
vn 0.4032 -0.5096 0.7601
vn 0.7977 0.5755 0.1799
vn 0.8035 0.4503 -0.3894
vn 0.6685 0.6026 -0.4359
vn 0.7150 0.5542 -0.4262
vn 0.9636 -0.2671 0.0064
vn -0.0184 -0.9744 0.2240
vn 0.1585 -0.9619 0.2226
vn 0.7365 -0.1796 -0.6521
vn -0.8306 -0.1990 -0.5200
vn 0.5000 -0.1118 0.8588
vn -0.0746 0.1752 -0.9817
vn -0.0977 -0.9445 0.3136
vt 0.624442 0.103516
vt 0.578125 0.046875
vt 0.625000 0.070312
vt 0.546317 0.071987
vt 0.531250 0.000000
vt 0.562500 0.000000
vt 0.592448 0.032552
vt 0.625000 0.047526
vt 0.517976 0.496726
vt 0.583333 0.458333
vt 0.567708 0.489583
vt 0.625000 0.437500
vt 0.552083 0.427083
vt 0.625000 0.375000
vt 0.625000 0.500000
vt 0.625000 0.718750
vt 0.614583 0.739583
vt 0.608724 0.733724
vt 0.625000 0.750000
vt 0.625000 0.734375
vt 0.657552 0.032552
vt 0.687500 0.000000
vt 0.671875 0.046875
vt 0.718750 0.000000
vt 0.701451 0.076451
vt 0.125000 0.000000
vt 0.166667 0.041667
vt 0.125000 0.062500
vt 0.125000 0.125000
vt 0.200521 0.072917
vt 0.875000 0.031250
vt 0.869792 0.010417
vt 0.875000 0.015625
vt 0.859375 0.000000
vt 0.866862 0.016276
vt 0.875000 0.000000
vt 0.867188 0.000000
vt 0.416527 0.051851
vt 0.416667 0.020833
vt 0.424479 0.026042
vt 0.406250 0.000000
vt 0.404948 0.032552
vt 0.645833 0.020833
vt 0.625000 0.026042
vt 0.804316 0.200149
vt 0.812500 0.250000
vt 0.750000 0.250000
vt 0.875000 0.187500
vt 0.833333 0.229167
vt 0.875000 0.218750
vt 0.875000 0.250000
vt 0.424851 0.674851
vt 0.375000 0.687500
vt 0.375000 0.625000
vt 0.375000 0.750000
vt 0.395833 0.708333
vt 0.401042 0.750000
vt 0.406250 1.000000
vt 0.416667 0.989583
vt 0.421875 1.000000
vt 0.416341 0.970540
vt 0.404948 0.983724
vt 0.372256 0.102632
vt 0.354167 0.041667
vt 0.373698 0.053385
vt 0.312500 0.000000
vt 0.325521 0.072917
vt 0.343750 0.000000
vt 0.375000 0.000000
vt 0.622768 0.156250
vt 0.781250 0.000000
vt 0.750000 0.000000
vt 0.812500 0.000000
vt 0.758929 0.133929
vt 0.875000 0.156250
vt 0.824498 0.076451
vt 0.875000 0.125000
vt 0.625000 0.250000
vt 0.687500 0.250000
vt 0.375000 0.500000
vt 0.491071 0.616071
vt 0.375000 0.562500
vt 0.544643 0.552455
vt 0.466518 0.497768
vt 0.625000 0.593750
vt 0.625000 0.562500
vt 0.625000 0.625000
vt 0.476935 0.750372
vt 0.548549 0.673549
vt 0.523530 0.744722
vt 0.430432 0.750093
vt 0.375000 0.250000
vt 0.500000 0.375000
vt 0.375000 0.375000
vt 0.625000 0.312500
vt 0.495536 0.247768
vt 0.609375 0.546875
vt 0.562500 0.531250
vt 0.531250 0.507812
vt 0.562500 0.500000
vt 0.609375 0.507812
vt 0.625000 0.531250
vt 0.875000 0.093750
vt 0.851562 0.046875
vt 0.828125 0.000000
vt 0.858398 0.033203
vt 0.875000 0.062500
vt 0.578125 0.703125
vt 0.554688 0.744141
vt 0.625000 0.656250
vt 0.625000 0.687500
vt 0.591797 0.716797
vt 0.575195 0.745850
vt 0.875000 0.046875
vt 0.843750 0.000000
vt 0.863281 0.023438
vt 0.851562 0.000000
vt 0.601562 0.726562
vt 0.589844 0.747070
vt 0.625000 0.703125
vt 0.601237 0.747966
vt 0.500000 0.500000
vt 0.468750 0.000000
vt 0.437500 0.020833
vt 0.453125 0.000000
vt 0.448661 0.049851
vt 0.260417 0.125000
vt 0.125000 0.187500
vt 0.281250 0.000000
vt 0.373140 0.154018
vt 0.250000 0.250000
vt 0.125000 0.250000
vt 0.482143 0.116071
vt 0.413504 0.087612
vt 0.390625 0.046875
vt 0.390625 0.000000
vt 0.412760 0.942057
vt 0.375000 0.968750
vt 0.375000 0.937500
vt 0.390625 0.976562
vt 0.390625 1.000000
vt 0.375000 1.000000
vt 0.500000 0.000000
vt 0.611979 0.748698
vt 0.187500 0.000000
vt 0.421875 0.000000
vt 0.604167 0.020833
vt 0.424479 0.986979
s 1
g off
g pasted__polySurface3.001_pasted__lambert10
usemtl pasted__lambert10
f 10/1/1 146/2/2 62/3/3
f 59/4/4 60/5/5 146/2/2
f 146/2/2 13/6/6 61/7/7
f 146/2/2 11/8/8 62/3/3
f 30/16/16 148/17/17 66/18/18
f 7/19/19 148/17/17 67/20/20
f 70/21/21 62/3/3 11/8/8
f 12/22/22 149/23/23 70/21/21
f 69/24/24 71/25/25 149/23/23
f 149/23/23 10/1/1 62/3/3
f 6/26/26 150/27/27 74/28/28
f 18/29/29 150/27/27 73/30/30
f 30/31/16 151/32/31 67/33/20
f 28/34/32 151/32/31 76/35/33
f 7/36/19 151/32/31 75/37/34
f 51/38/35 152/39/36 79/40/37
f 48/41/38 152/39/36 77/42/39
f 11/8/8 153/43/40 70/21/21
f 61/7/7 80/44/41 11/8/8
f 84/52/46 74/53/28 18/54/29
f 6/55/26 156/56/47 83/57/48
f 48/58/38 157/59/49 78/60/50
f 50/61/51 157/59/49 85/62/52
f 46/63/53 158/64/54 89/65/55
f 47/66/56 158/64/54 87/67/57
f 89/65/55 88/68/58 1/69/59
f 71/25/25 94/70/60 10/1/1
f 90/71/61 71/25/25 9/72/62
f 16/73/63 159/74/64 90/71/61
f 92/75/65 91/76/66 15/77/67
f 81/45/42 92/75/65 21/48/43
f 20/47/14 159/74/64 81/45/42
f 3/78/68 159/74/64 93/79/69
f 4/80/70 160/81/71 99/82/72
f 96/83/73 95/84/74 19/9/9
f 92/85/65 96/83/73 21/86/43
f 15/87/67 160/81/71 92/85/65
f 98/88/75 97/89/76 14/90/77
f 84/52/46 98/88/75 17/91/78
f 18/54/29 160/81/71 84/52/46
f 2/92/79 161/93/80 101/94/81
f 93/95/69 100/96/82 3/78/68
f 20/14/14 161/93/80 93/95/69
f 95/84/74 63/13/13 19/9/9
f 4/80/70 161/93/80 95/84/74
f 91/76/66 110/103/95 15/77/67
f 16/73/63 165/104/96 91/76/66
f 108/105/97 109/106/98 165/104/96
f 165/104/96 27/107/99 110/103/95
f 14/90/77 166/108/100 111/109/101
f 97/89/76 110/110/95 166/108/100
f 166/108/100 27/111/99 112/112/102
f 111/109/101 112/112/102 26/113/103
f 109/106/98 114/114/104 27/107/99
f 25/115/105 167/116/106 109/106/98
f 113/117/107 76/35/33 167/116/106
f 167/116/106 30/31/16 114/114/104
f 26/113/103 168/118/108 115/119/109
f 112/112/102 114/120/104 168/118/108
f 168/118/108 30/16/16 66/18/18
f 115/119/109 66/18/18 29/121/110
f 49/123/171 184/124/172 52/125/173
f 79/40/37 53/126/174 51/38/35
f 18/29/29 185/127/175 99/128/72
f 87/67/57 54/129/176 47/66/56
f 55/130/177 87/67/57 46/63/53
f 2/92/79 185/127/175 55/130/177
f 99/128/72 101/131/81 4/132/70
f 46/63/53 186/133/178 55/130/177
f 53/126/174 57/134/179 51/38/35
f 94/70/60 59/4/4 10/1/1
f 100/96/82 94/70/60 3/78/68
f 55/130/177 100/96/82 2/92/79
f 1/69/59 187/135/180 89/65/55
f 48/41/38 187/135/180 58/136/181
f 77/42/39 57/134/179 187/135/180
f 89/65/55 57/134/179 46/63/53
f 56/137/182 88/138/58 47/139/56
f 50/61/51 188/140/183 56/137/182
f 85/62/52 58/141/181 188/140/183
f 188/140/183 1/142/59 88/138/58
f 10/1/1 59/4/4 146/2/2
f 59/4/4 8/143/184 60/5/5
f 146/2/2 60/5/5 13/6/6
f 146/2/2 61/7/7 11/8/8
f 30/16/16 67/20/20 148/17/17
f 7/19/19 68/144/185 148/17/17
f 70/21/21 149/23/23 62/3/3
f 12/22/22 69/24/24 149/23/23
f 69/24/24 9/72/62 71/25/25
f 149/23/23 71/25/25 10/1/1
f 6/26/26 72/145/186 150/27/27
f 18/29/29 74/28/28 150/27/27
f 30/31/16 76/35/33 151/32/31
f 28/34/32 75/37/34 151/32/31
f 7/36/19 67/33/20 151/32/31
f 51/38/35 77/42/39 152/39/36
f 48/41/38 78/146/50 152/39/36
f 11/8/8 80/44/41 153/43/40
f 61/7/7 154/147/187 80/44/41
f 84/52/46 156/56/47 74/53/28
f 6/55/26 74/53/28 156/56/47
f 48/58/38 85/62/52 157/59/49
f 50/61/51 86/148/188 157/59/49
f 46/63/53 87/67/57 158/64/54
f 47/66/56 88/68/58 158/64/54
f 89/65/55 158/64/54 88/68/58
f 71/25/25 159/74/64 94/70/60
f 90/71/61 159/74/64 71/25/25
f 16/73/63 91/76/66 159/74/64
f 92/75/65 159/74/64 91/76/66
f 81/45/42 159/74/64 92/75/65
f 20/47/14 93/79/69 159/74/64
f 3/78/68 94/70/60 159/74/64
f 4/80/70 95/84/74 160/81/71
f 96/83/73 160/81/71 95/84/74
f 92/85/65 160/81/71 96/83/73
f 15/87/67 97/89/76 160/81/71
f 98/88/75 160/81/71 97/89/76
f 84/52/46 160/81/71 98/88/75
f 18/54/29 99/82/72 160/81/71
f 2/92/79 100/96/82 161/93/80
f 93/95/69 161/93/80 100/96/82
f 20/14/14 63/13/13 161/93/80
f 95/84/74 161/93/80 63/13/13
f 4/80/70 101/94/81 161/93/80
f 91/76/66 165/104/96 110/103/95
f 16/73/63 108/105/97 165/104/96
f 108/105/97 25/115/105 109/106/98
f 165/104/96 109/106/98 27/107/99
f 14/90/77 97/89/76 166/108/100
f 97/89/76 15/87/67 110/110/95
f 166/108/100 110/110/95 27/111/99
f 111/109/101 166/108/100 112/112/102
f 109/106/98 167/116/106 114/114/104
f 25/115/105 113/117/107 167/116/106
f 113/117/107 28/34/32 76/35/33
f 167/116/106 76/35/33 30/31/16
f 26/113/103 112/112/102 168/118/108
f 112/112/102 27/111/99 114/120/104
f 168/118/108 114/120/104 30/16/16
f 115/119/109 168/118/108 66/18/18
f 49/123/171 53/126/174 184/124/172
f 79/40/37 184/124/172 53/126/174
f 18/29/29 73/30/30 185/127/175
f 87/67/57 185/127/175 54/129/176
f 55/130/177 185/127/175 87/67/57
f 2/92/79 101/131/81 185/127/175
f 99/128/72 185/127/175 101/131/81
f 46/63/53 57/134/179 186/133/178
f 53/126/174 186/133/178 57/134/179
f 94/70/60 186/133/178 59/4/4
f 100/96/82 186/133/178 94/70/60
f 55/130/177 186/133/178 100/96/82
f 1/69/59 58/136/181 187/135/180
f 48/41/38 77/42/39 187/135/180
f 77/42/39 51/38/35 57/134/179
f 89/65/55 187/135/180 57/134/179
f 56/137/182 188/140/183 88/138/58
f 50/61/51 85/62/52 188/140/183
f 85/62/52 48/58/38 58/141/181
f 188/140/183 58/141/181 1/142/59
g pasted__polySurface3.001_pasted__lambert12
usemtl pasted__lambert12
f 19/9/9 147/10/10 65/11/11
f 64/12/12 63/13/13 20/14/14
f 65/11/11 64/12/12 5/15/15
f 81/45/42 64/46/12 20/47/14
f 21/48/43 155/49/44 81/45/42
f 64/46/12 82/50/45 5/51/15
f 96/83/73 104/97/83 21/86/43
f 19/9/9 162/98/84 96/83/73
f 102/99/85 103/98/86 162/98/84
f 162/98/84 22/97/87 104/97/83
f 65/11/11 102/99/85 19/9/9
f 5/15/15 163/100/88 65/11/11
f 105/101/89 106/100/90 163/100/88
f 163/100/88 23/99/91 102/99/85
f 5/15/15 164/102/92 105/101/89
f 82/102/45 104/97/83 164/102/92
f 164/102/92 22/97/87 107/102/93
f 105/101/89 107/102/93 24/101/94
f 103/98/86 118/97/111 22/97/87
f 23/99/91 169/98/112 103/98/86
f 116/99/113 117/98/114 169/98/112
f 169/98/112 31/97/115 118/97/111
f 23/99/91 170/100/116 116/99/113
f 106/100/90 119/101/117 170/100/116
f 170/100/116 33/101/118 120/100/119
f 116/99/113 120/100/119 32/99/120
f 24/101/94 171/102/121 119/101/117
f 22/97/87 171/102/121 107/102/93
f 118/97/111 121/102/122 171/102/121
f 171/102/121 33/101/118 119/101/117
f 117/98/114 124/97/123 31/97/115
f 32/99/120 172/98/124 117/98/114
f 122/99/125 123/98/126 172/98/124
f 172/98/124 34/97/127 124/97/123
f 32/99/120 173/100/128 122/99/125
f 120/100/119 125/101/129 173/100/128
f 173/100/128 36/101/130 126/100/131
f 122/99/125 126/100/131 35/99/132
f 33/101/118 174/102/133 125/101/129
f 31/97/115 174/102/133 121/102/122
f 124/97/123 127/102/134 174/102/133
f 125/101/129 127/102/134 36/101/130
f 123/98/126 130/97/135 34/97/127
f 35/99/132 175/98/136 123/98/126
f 175/98/136 38/99/137 129/98/138
f 175/98/136 37/97/139 130/97/135
f 35/99/132 176/100/140 128/99/141
f 126/100/131 131/101/142 176/100/140
f 176/100/140 39/101/143 132/100/144
f 128/99/141 132/100/144 38/99/137
f 127/102/134 131/101/142 36/101/130
f 34/97/127 177/102/145 127/102/134
f 130/97/135 133/102/146 177/102/145
f 177/102/145 39/101/143 131/101/142
f 134/98/147 137/97/148 43/97/149
f 44/99/150 178/98/151 134/98/147
f 135/99/152 136/98/153 178/98/151
f 137/97/148 136/98/153 40/86/154
f 44/99/150 179/100/155 135/99/152
f 138/100/156 139/101/157 179/100/155
f 139/101/157 140/100/158 179/100/155
f 135/99/152 140/100/158 41/122/159
f 141/102/160 139/101/157 45/101/161
f 43/97/149 180/102/162 141/102/160
f 137/97/148 142/102/163 180/102/162
f 139/101/157 142/102/163 42/15/164
f 37/97/139 181/98/165 144/97/166
f 129/98/138 143/99/167 181/98/165
f 181/98/165 44/99/150 134/98/147
f 181/98/165 43/97/149 144/97/166
f 38/99/137 182/100/168 143/99/167
f 132/100/144 145/101/169 182/100/168
f 182/100/168 45/101/161 138/100/156
f 143/99/167 138/100/156 44/99/150
f 133/102/146 145/101/169 39/101/143
f 37/97/139 183/102/170 133/102/146
f 144/97/166 141/102/160 183/102/170
f 183/102/170 45/101/161 145/101/169
f 19/9/9 63/13/13 147/10/10
f 64/12/12 147/10/10 63/13/13
f 65/11/11 147/10/10 64/12/12
f 81/45/42 155/49/44 64/46/12
f 21/48/43 82/50/45 155/49/44
f 64/46/12 155/49/44 82/50/45
f 96/83/73 162/98/84 104/97/83
f 19/9/9 102/99/85 162/98/84
f 102/99/85 23/99/91 103/98/86
f 162/98/84 103/98/86 22/97/87
f 65/11/11 163/100/88 102/99/85
f 5/15/15 105/101/89 163/100/88
f 105/101/89 24/101/94 106/100/90
f 163/100/88 106/100/90 23/99/91
f 5/15/15 82/102/45 164/102/92
f 82/102/45 21/86/43 104/97/83
f 164/102/92 104/97/83 22/97/87
f 105/101/89 164/102/92 107/102/93
f 103/98/86 169/98/112 118/97/111
f 23/99/91 116/99/113 169/98/112
f 116/99/113 32/99/120 117/98/114
f 169/98/112 117/98/114 31/97/115
f 23/99/91 106/100/90 170/100/116
f 106/100/90 24/101/94 119/101/117
f 170/100/116 119/101/117 33/101/118
f 116/99/113 170/100/116 120/100/119
f 24/101/94 107/102/93 171/102/121
f 22/97/87 118/97/111 171/102/121
f 118/97/111 31/97/115 121/102/122
f 171/102/121 121/102/122 33/101/118
f 117/98/114 172/98/124 124/97/123
f 32/99/120 122/99/125 172/98/124
f 122/99/125 35/99/132 123/98/126
f 172/98/124 123/98/126 34/97/127
f 32/99/120 120/100/119 173/100/128
f 120/100/119 33/101/118 125/101/129
f 173/100/128 125/101/129 36/101/130
f 122/99/125 173/100/128 126/100/131
f 33/101/118 121/102/122 174/102/133
f 31/97/115 124/97/123 174/102/133
f 124/97/123 34/97/127 127/102/134
f 125/101/129 174/102/133 127/102/134
f 123/98/126 175/98/136 130/97/135
f 35/99/132 128/99/141 175/98/136
f 175/98/136 128/99/141 38/99/137
f 175/98/136 129/98/138 37/97/139
f 35/99/132 126/100/131 176/100/140
f 126/100/131 36/101/130 131/101/142
f 176/100/140 131/101/142 39/101/143
f 128/99/141 176/100/140 132/100/144
f 127/102/134 177/102/145 131/101/142
f 34/97/127 130/97/135 177/102/145
f 130/97/135 37/97/139 133/102/146
f 177/102/145 133/102/146 39/101/143
f 134/98/147 178/98/151 137/97/148
f 44/99/150 135/99/152 178/98/151
f 135/99/152 41/122/159 136/98/153
f 137/97/148 178/98/151 136/98/153
f 44/99/150 138/100/156 179/100/155
f 138/100/156 45/101/161 139/101/157
f 139/101/157 42/15/164 140/100/158
f 135/99/152 179/100/155 140/100/158
f 141/102/160 180/102/162 139/101/157
f 43/97/149 137/97/148 180/102/162
f 137/97/148 40/86/154 142/102/163
f 139/101/157 180/102/162 142/102/163
f 37/97/139 129/98/138 181/98/165
f 129/98/138 38/99/137 143/99/167
f 181/98/165 143/99/167 44/99/150
f 181/98/165 134/98/147 43/97/149
f 38/99/137 132/100/144 182/100/168
f 132/100/144 39/101/143 145/101/169
f 182/100/168 145/101/169 45/101/161
f 143/99/167 182/100/168 138/100/156
f 133/102/146 183/102/170 145/101/169
f 37/97/139 144/97/166 183/102/170
f 144/97/166 43/97/149 141/102/160
f 183/102/170 141/102/160 45/101/161
