# Blender 5.0.1
# www.blender.org
mtllib catapulta.mtl
g catapult.001_Malla
v -2.224405 4.309311 0.408318
v -2.224405 4.646533 0.408317
v -2.224405 4.309311 -0.292381
v -2.224405 4.646533 -0.292382
v 3.856208 4.309311 0.408318
v 3.856208 4.646533 0.408318
v 3.856208 4.309311 -0.292381
v 3.856208 4.646533 -0.292381
v -3.465625 4.309311 -0.292382
v -3.465625 4.309311 0.408317
v -3.465625 4.646533 0.408317
v -3.465625 4.646533 -0.292382
v -2.224405 4.309311 1.031649
v -1.398320 4.668589 0.102280
v -4.161670 4.309311 1.031648
v -4.161670 4.646533 1.031648
v -2.224405 4.646533 -0.915713
v -2.224405 4.309311 -0.915713
v -4.161670 4.646533 -0.915713
v -4.161670 4.309311 -0.915713
v 4.545023 3.920394 -0.711667
v 4.545023 4.682888 -0.533729
v 5.089296 3.920394 -0.486222
v 4.963474 4.682888 -0.360401
v 5.314741 3.920394 0.058051
v 5.136803 4.682888 0.058051
v 5.089296 3.920394 0.602323
v 4.963474 4.682888 0.476502
v 4.545023 3.920394 0.827768
v 4.545023 4.682888 0.649830
v 4.000751 3.920394 0.602323
v 4.126573 4.682888 0.476502
v 3.775306 3.920394 0.058051
v 3.953244 4.682888 0.058051
v 4.000751 3.920394 -0.486222
v 4.126573 4.682888 -0.360401
v 4.545023 3.550832 0.058050
v 4.545023 4.249466 -0.975648
v 5.275959 4.249466 -0.672885
v 5.578722 4.249466 0.058051
v 5.275959 4.249466 0.788986
v 4.545023 4.249466 1.091749
v 3.814088 4.249466 0.788986
v 3.511325 4.249466 0.058051
v 3.814088 4.249466 -0.672885
v 5.275959 4.770161 -0.672885
v 4.545023 4.770161 -0.975648
v 5.578722 4.770161 0.058051
v 5.275959 4.770161 0.788986
v 4.545023 4.770161 1.091749
v 3.814088 4.770161 0.788986
v 3.511325 4.770161 0.058051
v 3.814088 4.770161 -0.672885
v 5.088079 4.682888 -0.485006
v 4.545023 4.682888 -0.709947
v 5.313021 4.682888 0.058051
v 5.088079 4.682888 0.601107
v 4.545023 4.682888 0.826048
v 4.001967 4.682888 0.601107
v 3.777026 4.682888 0.058051
v 4.001967 4.682888 -0.485006
v 4.963474 4.274084 -0.360401
v 4.545023 4.274084 -0.533729
v 5.136803 4.274084 0.058051
v 4.963474 4.274084 0.476502
v 4.545023 4.274084 0.649830
v 4.126573 4.274084 0.476502
v 3.953244 4.274084 0.058051
v 4.126573 4.274084 -0.360401
v 4.545023 3.949323 0.058050
vn -0.0000 -0.0000 -1.0000
vn -0.0000 1.0000 -0.0000
vn 1.0000 -0.0000 -0.0000
vn -0.0000 -0.0000 1.0000
vn -0.0000 -1.0000 -0.0000
vn -1.0000 -0.0000 -0.0000
vn -0.2738 0.4484 -0.8509
vn 0.1456 0.8364 0.5284
vn 0.0348 0.2001 0.9792
vn -0.6671 -0.0000 -0.7449
vn -0.0057 0.9998 -0.0177
vn -0.1528 -0.8666 -0.4750
vn 0.1653 -0.8316 -0.5302
vn 0.1136 -0.7826 -0.6121
vn 0.3988 -0.9170 -0.0000
vn -0.6671 -0.0000 0.7449
vn 0.3827 -0.0000 -0.9239
vn 0.9239 -0.0000 -0.3827
vn 0.9239 -0.0000 0.3827
vn 0.3827 -0.0000 0.9239
vn -0.3827 -0.0000 0.9239
vn -0.9239 -0.0000 0.3827
vn -0.3827 -0.0000 -0.9239
vn -0.9239 -0.0000 -0.3827
vn -0.3075 -0.5954 -0.7422
vn -0.3075 -0.5954 -0.7423
vn 0.1765 -0.8873 -0.4260
vn 0.4260 -0.8873 -0.1765
vn 0.4260 -0.8873 0.1765
vn 0.1765 -0.8873 0.4260
vn -0.1765 -0.8873 0.4260
vn -0.4260 -0.8873 0.1765
vn -0.4260 -0.8873 -0.1765
vn -0.1765 -0.8873 -0.4260
vn -0.7422 -0.5954 -0.3074
vn -0.7422 -0.5954 0.3074
vn -0.7422 -0.5954 0.3075
vn -0.3075 -0.5954 0.7422
vn -0.3075 -0.5954 0.7423
vn 0.3074 -0.5954 0.7422
vn 0.3074 -0.5954 0.7423
vn 0.7423 -0.5954 0.3075
vn 0.7423 -0.5954 -0.3074
vn 0.7423 -0.5954 -0.3075
vn 0.3074 -0.5954 -0.7423
vn 0.3075 -0.5954 -0.7422
vn -0.1282 0.9422 0.3095
vn -0.3095 0.9422 0.1282
vn -0.3095 0.9422 -0.1282
vn -0.1282 0.9422 -0.3095
vn 0.1282 0.9422 -0.3095
vn 0.3095 0.9422 -0.1282
vn 0.3095 0.9422 0.1282
vn 0.1282 0.9422 0.3095
vn -0.1954 0.8598 0.4718
vn 0.1954 0.8598 0.4718
vn 0.4718 0.8598 0.1954
vn 0.4718 0.8598 -0.1954
vn 0.1954 0.8598 -0.4718
vn -0.1954 0.8598 -0.4718
vn -0.4718 0.8598 -0.1954
vn -0.4718 0.8598 0.1954
vn 0.1513 0.8693 0.4706
vn -0.3474 -0.0000 -0.9377
vn 0.7423 -0.5954 0.3074
vt 0.126817 0.025309
vt 0.116957 0.203094
vt 0.116957 0.025309
vt 0.146279 0.073531
vt 0.172752 0.024384
vt 0.148873 0.107947
vt 0.132162 0.140601
vt 0.142021 0.120115
vt 0.142021 0.140601
vt 0.126817 0.203094
vt 0.105366 0.225546
vt 0.086013 0.057604
vt 0.105366 0.057604
vt 0.086013 0.225546
vt 0.132162 0.120115
vt 0.105366 0.023323
vt 0.132162 0.145158
vt 0.142021 0.201799
vt 0.132162 0.201799
vt 0.131008 0.107010
vt 0.142183 0.072779
vt 0.144395 0.062528
vt 0.130564 0.024384
vt 0.146924 0.063328
vt 0.142021 0.145158
vt 0.480769 0.485027
vt 0.467771 0.459033
vt 0.480769 0.459033
vt 0.467771 0.485027
vt 0.454774 0.459033
vt 0.454774 0.485027
vt 0.441777 0.459033
vt 0.441777 0.485027
vt 0.428779 0.459033
vt 0.428779 0.485027
vt 0.415782 0.459033
vt 0.415782 0.485027
vt 0.402785 0.459033
vt 0.412887 0.396941
vt 0.402785 0.392757
vt 0.402785 0.485027
vt 0.389787 0.459033
vt 0.389787 0.485027
vt 0.376790 0.459033
vt 0.389787 0.433038
vt 0.376790 0.433038
vt 0.454774 0.431998
vt 0.472420 0.424689
vt 0.454774 0.407043
vt 0.479729 0.407043
vt 0.472420 0.389398
vt 0.454774 0.382088
vt 0.437128 0.389398
vt 0.429819 0.407043
vt 0.437128 0.424689
vt 0.402785 0.433038
vt 0.415782 0.433038
vt 0.428779 0.433038
vt 0.441777 0.433038
vt 0.454774 0.433038
vt 0.467771 0.433038
vt 0.480769 0.433038
vt 0.415895 0.420153
vt 0.402785 0.431998
vt 0.402785 0.425584
vt 0.421325 0.407043
vt 0.420431 0.424689
vt 0.420431 0.389398
vt 0.427740 0.407043
vt 0.415895 0.393933
vt 0.402785 0.382088
vt 0.402785 0.388503
vt 0.385139 0.389398
vt 0.389675 0.393933
vt 0.377830 0.407043
vt 0.389675 0.420153
vt 0.384244 0.407043
vt 0.385139 0.424689
vt 0.412887 0.417145
vt 0.402785 0.421330
vt 0.417071 0.407043
vt 0.392683 0.396941
vt 0.388499 0.407043
vt 0.392683 0.417145
vt 0.402785 0.407043
vt 0.086013 0.225545
vt 0.086013 0.023323
vt 0.376790 0.485027
s 1
g off
g catapult.001_Itemandenemy
usemtl Itemandenemy
f 4/1/1 7/2/1 3/3/1
s 2
f 12/4/2 17/5/2 19/6/2
s 4
f 8/7/3 5/8/3 7/9/3
s 1
f 6/2/4 1/1/4 5/10/4
s 2
f 7/11/5 1/12/5 3/13/5
f 4/12/2 6/11/2 8/14/2
s 1
f 11/8/6 9/7/6 10/15/6
s 2
f 10/4/5 13/5/5 15/6/5
f 4/12/2 11/16/2 2/13/7
f 1/12/5 9/16/5 3/13/5
s 1
f 13/17/8 16/18/9 15/19/4
s 4
f 10/4/10 16/20/10 11/21/10
s 2
f 2/22/7 16/20/11 14/23/12
s 4
f 1/24/13 14/23/14 13/5/15
s 1
f 18/19/1 19/25/1 17/18/1
s 4
f 12/4/16 20/20/16 9/21/16
s 2
f 9/21/5 18/23/5 3/22/5
s 4
f 3/22/3 17/5/3 4/24/3
s 1
f 47/26/17 39/27/17 38/28/17
s 2
f 46/29/18 40/30/18 39/27/18
s 1
f 48/31/19 41/32/19 40/30/19
s 2
f 49/33/20 42/34/20 41/32/20
s 1
f 50/35/21 43/36/21 42/34/21
s 2
f 51/37/22 44/38/22 43/36/22
s 1
f 28/39/23 66/40/23 30/40/23
f 52/41/24 45/42/24 44/38/24
s 2
f 53/43/23 38/44/23 45/42/23
s 4
f 35/45/25 38/44/25 21/46/26
s 1
f 21/47/27 23/48/27 37/49/27
s 2
f 23/48/28 25/50/28 37/49/28
s 4
f 25/50/29 27/51/29 37/49/29
s 8
f 27/51/30 29/52/30 37/49/30
s 16
f 29/52/31 31/53/31 37/49/31
s 32
f 31/53/32 33/54/32 37/49/32
s 64
f 33/54/33 35/55/33 37/49/33
s 128
f 35/55/34 21/47/34 37/49/34
s 8
f 44/38/35 35/45/35 33/56/35
s 4
f 31/57/36 44/38/37 33/56/37
s 64
f 42/34/38 31/57/38 29/58/39
s 32
f 41/32/40 29/58/41 27/59/40
s 16
f 25/60/42 41/32/42 27/59/42
s 8
f 23/61/43 40/30/44 25/60/44
s 16
f 38/28/45 23/61/45 21/62/46
s 4
f 54/63/47 47/64/47 55/65/47
s 8
f 56/66/48 46/67/48 54/63/48
s 4
f 56/66/49 49/68/49 48/69/49
s 8
f 57/70/50 50/71/50 49/68/50
s 4
f 58/72/51 51/73/51 50/71/51
s 8
f 59/74/52 52/75/52 51/73/52
s 4
f 61/76/53 52/75/53 60/77/53
s 8
f 61/76/54 47/64/54 53/78/54
s 2
f 24/79/2 55/65/2 22/80/2
f 26/81/2 54/63/2 24/79/2
f 26/81/2 57/70/2 56/66/2
f 30/40/2 57/70/2 28/39/2
f 32/82/2 58/72/2 30/40/2
f 34/83/2 59/74/2 32/82/2
f 34/83/2 61/76/2 60/77/2
f 36/84/2 55/65/2 61/76/2
s 1
f 24/79/22 64/81/22 26/81/22
f 34/83/19 69/84/19 36/84/19
s 4
f 30/40/17 67/82/17 32/82/17
f 26/81/24 65/39/24 28/39/24
f 22/80/21 62/79/21 24/79/21
s 8
f 36/84/20 63/80/20 22/80/20
f 32/82/18 68/83/18 34/83/18
s 2
f 62/79/55 63/80/55 70/85/55
s 16
f 63/80/56 69/84/56 70/85/56
s 4
f 69/84/57 68/83/57 70/85/57
s 32
f 68/83/58 67/82/58 70/85/58
s 64
f 67/82/59 66/40/59 70/85/59
s 8
f 66/40/60 65/39/60 70/85/60
s 128
f 65/39/61 64/81/61 70/85/61
s 256
f 64/81/62 62/79/62 70/85/62
s 1
f 4/1/1 8/10/1 7/2/1
s 2
f 12/4/2 4/24/2 17/5/2
s 4
f 8/7/3 6/15/3 5/8/3
s 1
f 6/2/4 2/3/4 1/1/4
s 2
f 7/11/5 5/86/5 1/12/5
f 4/12/2 2/13/7 6/11/2
s 1
f 11/8/6 12/9/6 9/7/6
s 2
f 10/4/5 1/24/5 13/5/5
f 4/12/2 12/87/2 11/16/2
f 1/12/5 10/87/5 9/16/5
s 1
f 13/17/8 14/25/63 16/18/9
s 4
f 10/4/10 15/6/10 16/20/10
s 2
f 2/22/7 11/21/2 16/20/11
s 4
f 1/24/13 2/22/64 14/23/14
s 1
f 18/19/1 20/17/1 19/25/1
s 4
f 12/4/16 19/6/16 20/20/16
s 2
f 9/21/5 20/20/5 18/23/5
s 4
f 3/22/3 18/23/3 17/5/3
s 1
f 47/26/17 46/29/17 39/27/17
s 2
f 46/29/18 48/31/18 40/30/18
s 1
f 48/31/19 49/33/19 41/32/19
s 2
f 49/33/20 50/35/20 42/34/20
s 1
f 50/35/21 51/37/21 43/36/21
s 2
f 51/37/22 52/41/22 44/38/22
s 1
f 28/39/23 65/39/23 66/40/23
f 52/41/24 53/43/24 45/42/24
s 2
f 53/43/23 47/88/23 38/44/23
s 4
f 35/45/25 45/42/25 38/44/25
s 8
f 44/38/35 45/42/35 35/45/35
s 4
f 31/57/36 43/36/36 44/38/37
s 64
f 42/34/38 43/36/38 31/57/38
s 32
f 41/32/40 42/34/41 29/58/41
s 16
f 25/60/42 40/30/65 41/32/42
s 8
f 23/61/43 39/27/43 40/30/44
s 16
f 38/28/45 39/27/45 23/61/45
s 4
f 54/63/47 46/67/47 47/64/47
s 8
f 56/66/48 48/69/48 46/67/48
s 4
f 56/66/49 57/70/49 49/68/49
s 8
f 57/70/50 58/72/50 50/71/50
s 4
f 58/72/51 59/74/51 51/73/51
s 8
f 59/74/52 60/77/52 52/75/52
s 4
f 61/76/53 53/78/53 52/75/53
s 8
f 61/76/54 55/65/54 47/64/54
s 2
f 24/79/2 54/63/2 55/65/2
f 26/81/2 56/66/2 54/63/2
f 26/81/2 28/39/2 57/70/2
f 30/40/2 58/72/2 57/70/2
f 32/82/2 59/74/2 58/72/2
f 34/83/2 60/77/2 59/74/2
f 34/83/2 36/84/2 61/76/2
f 36/84/2 22/80/2 55/65/2
s 1
f 24/79/22 62/79/22 64/81/22
f 34/83/19 68/83/19 69/84/19
s 4
f 30/40/17 66/40/17 67/82/17
f 26/81/24 64/81/24 65/39/24
f 22/80/21 63/80/21 62/79/21
s 8
f 36/84/20 69/84/20 63/80/20
f 32/82/18 67/82/18 68/83/18
